<?xml version="1.0" encoding="utf-8"?>
<svg id="Layer_1" data-name="Layer 1" xmlns="http://www.w3.org/2000/svg" width="1220" height="830" viewBox="0 0 1220 830">
  <defs>
    <style>
      .cls-1 {fill: #fff;shape-rendering:geometricPrecision;}
    </style>
  </defs>
  <g>
    <path class="cls-1" d="M530.89,709.86A304.31,304.31,0,0,1,386.26,728.8h-.09A302.87,302.87,0,0,1,117.38,427.35h0a303.9,303.9,0,0,1,35.43-141.52v0a303.86,303.86,0,0,1,97.5-108.52l.1-.07a304.16,304.16,0,0,1,136.83-50.31h.05A304.19,304.19,0,0,1,532,146.39l6.5,2.57,6.4-16.15-6.51-2.58a321.88,321.88,0,0,0-146-21.28v-.08l-13.92,1.53v.08a321.73,321.73,0,0,0-132,48.56l0-.06-5.65,3.82-.15.1-5.79,3.93,0,.06a321.76,321.76,0,0,0-94,104.64l-.07,0-6.57,12.37.07,0A321.49,321.49,0,0,0,100.1,420.31H100l0,14h.08a321.57,321.57,0,0,0,33.63,136.55l-.07,0,3.27,6.19.07.14,3.19,6,.07,0a321.52,321.52,0,0,0,93.6,105l0,.07,11.56,7.9,0-.07a321.86,321.86,0,0,0,131.86,49.06v.08l6.91.78h0l7,.79v-.08q14.44,1.32,29,1.31A321.67,321.67,0,0,0,537.22,726l6.52-2.55L537.4,707.3Z"/>
    <path class="cls-1" d="M314.65,263.75a196.06,196.06,0,0,1,90.81-30.54h.14a196,196,0,0,1,94.27,16.29l6.4,2.85,7.06-15.88-6.4-2.84a213.63,213.63,0,0,0-95.82-18.16v-.11l-7,.53h-.06l-6.92.53v.12a213.55,213.55,0,0,0-86,28.92l-.06-.1-5.88,3.79-.06,0-5.83,3.76.06.1a213.5,213.5,0,0,0-61.86,66.29l-.1-.05-3.37,6.13,0,.06-3.34,6.07.1.06a213.3,213.3,0,0,0-22.87,87.72h-.12l-.1,14h.12a213.27,213.27,0,0,0,21.61,88l-.11.06,6.58,12.36.1,0a213.47,213.47,0,0,0,60.9,67.17l-.07.1,5.83,3.88.07,0,5.76,3.83.07-.1a213.49,213.49,0,0,0,85.53,30.15v.12L408,640.2v-.12q6.13.36,12.28.36a213.43,213.43,0,0,0,83.8-17.14l6.43-2.75-6.83-16-6.44,2.75a195.39,195.39,0,0,1-185-16.92h0a195.88,195.88,0,0,1-64.33-71l-.05-.1a195.19,195.19,0,0,1,66.73-255.6Z"/>
    <path class="cls-1" d="M959.83,149l6.39-16.15-6.5-2.58a321.94,321.94,0,0,0-146-21.28v-.08l-13.91,1.53v.08a321.73,321.73,0,0,0-132,48.56l0-.06-5.64,3.82-.15.1-5.79,3.93,0,.06a321.53,321.53,0,0,0-94,104.64l-.07,0-6.57,12.37.06,0a321.48,321.48,0,0,0-34.14,136.42h-.08l0,14h.07a321.43,321.43,0,0,0,33.64,136.55l-.07,0,6.52,12.38.07,0a321.55,321.55,0,0,0,93.61,105l0,.07,11.56,7.9,0-.07a321.77,321.77,0,0,0,131.85,49.06v.08l6.91.78h0l7,.79v-.08q14.44,1.32,29,1.31A321.72,321.72,0,0,0,958.6,726l6.52-2.55-6.34-16.18-6.52,2.56A304.17,304.17,0,0,1,807.63,728.8h-.09A304,304,0,0,1,670.76,677.9l-.09,0a302.72,302.72,0,0,1-96.49-392v0a304,304,0,0,1,97.5-108.52l.18-.12a304.21,304.21,0,0,1,136.75-50.26h0a304.15,304.15,0,0,1,144.65,19.48Z"/>
    <path class="cls-1" d="M670.51,333.89l0,0a195.33,195.33,0,0,1,156-100.61h.07A195.88,195.88,0,0,1,921,249.5l6.4,2.84,7.06-15.88-6.4-2.84a213.56,213.56,0,0,0-95.83-18.12v-.11l-14,1.08v.11a213.66,213.66,0,0,0-85.95,29l-.06-.1-5.82,3.75-.06,0L720.53,253l.07.1a213.42,213.42,0,0,0-61.84,66.32l-.1-.06-3.37,6.14a.43.43,0,0,0,0,.07l-3.33,6.06.1.06a213.35,213.35,0,0,0-22.84,87.73h-.12l0,7h0l0,7h.12a213.47,213.47,0,0,0,21.65,88l-.1,0,3.29,6.18a.31.31,0,0,0,.05.1l3.23,6.08.11-.06A213.31,213.31,0,0,0,718.24,601l-.07.1,11.66,7.74.07-.09a213.67,213.67,0,0,0,85.55,30.11l0,.12,6.91.62h.07l7,.64v-.12q6.09.35,12.18.35a213.42,213.42,0,0,0,83.88-17.17l6.44-2.75-6.84-16-6.43,2.75a196.13,196.13,0,0,1-94.55,15H824a195.25,195.25,0,0,1-177.6-195.73h0A195.82,195.82,0,0,1,670.51,333.89Z"/>
    <rect class="cls-1" x="1010.02" y="100" width="17.37" height="649.22"/>
    <rect class="cls-1" x="1119.58" y="100" width="17.37" height="649.22"/>
  </g>
</svg>
